<?xml version="1.0" encoding="UTF-8" standalone="no"?>
<!DOCTYPE svg PUBLIC "-//W3C//DTD SVG 1.1//EN"
 "http://www.w3.org/Graphics/SVG/1.1/DTD/svg11.dtd">
<!-- Generated by graphviz version 2.38.0 (20140413.2041)
 -->
<!-- Title: %3 Pages: 1 -->
<svg width="3531pt" height="391pt"
 viewBox="0.00 0.00 3530.80 391.00" xmlns="http://www.w3.org/2000/svg" xmlns:xlink="http://www.w3.org/1999/xlink">
<g id="graph0" class="graph" transform="scale(1 1) rotate(0) translate(4 387)">
<title>%3</title>
<polygon fill="white" stroke="none" points="-4,4 -4,-387 3526.8,-387 3526.8,4 -4,4"/>
<!-- dp_0 -->
<g id="node1" class="node"><title>dp_0</title>
<ellipse fill="black" stroke="black" cx="1.8" cy="-254" rx="1.8" ry="1.8"/>
</g>
<!-- dp_159 -->
<g id="node2" class="node"><title>dp_159</title>
<ellipse fill="black" stroke="black" cx="41.4" cy="-254" rx="1.8" ry="1.8"/>
</g>
<!-- dp_0&#45;&#45;dp_159 -->
<g id="edge1" class="edge"><title>dp_0&#45;&#45;dp_159</title>
<path fill="none" stroke="black" d="M3.72944,-254C8.79577,-254 33.0719,-254 39.0618,-254"/>
</g>
<!-- 2 -->
<g id="node3" class="node"><title>2</title>
<image xlink:href="img/resistor-original.svg" width="62px" height="30px" preserveAspectRatio="xMinYMin meet" x="216.8" y="-331"/>
<text text-anchor="middle" x="190.8" y="-286.8" font-family="Times,serif" font-size="14.00">2200.0 Ω</text>
</g>
<!-- dp_159&#45;&#45;2 -->
<g id="edge2" class="edge"><title>dp_159&#45;&#45;2</title>
<path fill="none" stroke="black" d="M43.3113,-254.276C54.3417,-257.622 162.737,-290.501 216.657,-306.857"/>
</g>
<!-- dp_160 -->
<g id="node4" class="node"><title>dp_160</title>
<ellipse fill="black" stroke="black" cx="81" cy="-218" rx="1.8" ry="1.8"/>
</g>
<!-- dp_159&#45;&#45;dp_160 -->
<g id="edge3" class="edge"><title>dp_159&#45;&#45;dp_160</title>
<path fill="none" stroke="black" d="M43.3294,-253.11C48.5767,-248.086 74.4304,-223.333 79.2319,-218.735"/>
</g>
<!-- dp_192 -->
<g id="node5" class="node"><title>dp_192</title>
<ellipse fill="black" stroke="black" cx="3325" cy="-331" rx="1.8" ry="1.8"/>
</g>
<!-- 2&#45;&#45;dp_192 -->
<g id="edge4" class="edge"><title>2&#45;&#45;dp_192</title>
<path fill="none" stroke="black" d="M275.158,-334.131C306.628,-353.973 361.558,-383 413.6,-383 413.6,-383 413.6,-383 3217.6,-383 3266.12,-383 3315.61,-338.808 3323.04,-331.903"/>
</g>
<!-- 8 -->
<g id="node6" class="node"><title>8</title>
<image xlink:href="img/resistor-original.svg" width="62px" height="30px" preserveAspectRatio="xMinYMin meet" x="118.8" y="-233"/>
<text text-anchor="middle" x="92.8" y="-188.8" font-family="Times,serif" font-size="14.00">2200.0 Ω</text>
</g>
<!-- dp_160&#45;&#45;8 -->
<g id="edge5" class="edge"><title>dp_160&#45;&#45;8</title>
<path fill="none" stroke="black" d="M83.1594,-218C87.5253,-218 103.495,-218 118.588,-218"/>
</g>
<!-- 66 -->
<g id="node7" class="node"><title>66</title>
<image xlink:href="img/resistor-original.svg" width="62px" height="30px" preserveAspectRatio="xMinYMin meet" x="314.8" y="-48"/>
<text text-anchor="middle" x="288.8" y="-3.8" font-family="Times,serif" font-size="14.00">1000.0 Ω</text>
</g>
<!-- dp_160&#45;&#45;66 -->
<g id="edge6" class="edge"><title>dp_160&#45;&#45;66</title>
<path fill="none" stroke="black" d="M82.9048,-217.324C87.0175,-214.256 104.37,-201.336 118.8,-191 190.608,-139.567 276.299,-80.2025 318.564,-51.0541"/>
</g>
<!-- 71 -->
<g id="node8" class="node"><title>71</title>
<image xlink:href="img/resistor-original.svg" width="62px" height="30px" preserveAspectRatio="xMinYMin meet" x="3362.8" y="-346"/>
<text text-anchor="middle" x="3333.3" y="-301.8" font-family="Times,serif" font-size="14.00">10000.0 Ω</text>
</g>
<!-- dp_192&#45;&#45;71 -->
<g id="edge7" class="edge"><title>dp_192&#45;&#45;71</title>
<path fill="none" stroke="black" d="M3327.16,-331C3331.53,-331 3347.49,-331 3362.59,-331"/>
</g>
<!-- 9 -->
<g id="node9" class="node"><title>9</title>
<image xlink:href="img/resistor-original.svg" width="62px" height="30px" preserveAspectRatio="xMinYMin meet" x="216.8" y="-233"/>
<text text-anchor="middle" x="190.8" y="-188.8" font-family="Times,serif" font-size="14.00">2200.0 Ω</text>
</g>
<!-- 8&#45;&#45;9 -->
<g id="edge8" class="edge"><title>8&#45;&#45;9</title>
<path fill="none" stroke="black" d="M180.912,-218C192.349,-218 205.368,-218 216.795,-218"/>
</g>
<!-- dp_189 -->
<g id="node10" class="node"><title>dp_189</title>
<ellipse fill="black" stroke="black" cx="3108.2" cy="-169" rx="1.8" ry="1.8"/>
</g>
<!-- 66&#45;&#45;dp_189 -->
<g id="edge9" class="edge"><title>66&#45;&#45;dp_189</title>
<path fill="none" stroke="black" d="M376.958,-24.5385C404.26,-17.6288 445.702,-9 482.4,-9 482.4,-9 482.4,-9 2971.6,-9 3059.72,-9 3102.41,-151.979 3106.82,-167.617"/>
</g>
<!-- 72 -->
<g id="node11" class="node"><title>72</title>
<image xlink:href="img/resistor-original.svg" width="62px" height="30px" preserveAspectRatio="xMinYMin meet" x="3460.8" y="-346"/>
<text text-anchor="middle" x="3434.8" y="-301.8" font-family="Times,serif" font-size="14.00">1000.0 Ω</text>
</g>
<!-- 71&#45;&#45;72 -->
<g id="edge10" class="edge"><title>71&#45;&#45;72</title>
<path fill="none" stroke="black" d="M3424.91,-331C3436.35,-331 3449.37,-331 3460.8,-331"/>
</g>
<!-- dp_161 -->
<g id="node12" class="node"><title>dp_161</title>
<ellipse fill="black" stroke="black" cx="345.8" cy="-218" rx="1.8" ry="1.8"/>
</g>
<!-- 9&#45;&#45;dp_161 -->
<g id="edge11" class="edge"><title>9&#45;&#45;dp_161</title>
<path fill="none" stroke="black" d="M278.912,-218C304.426,-218 337.809,-218 343.844,-218"/>
</g>
<!-- dp_190 -->
<g id="node13" class="node"><title>dp_190</title>
<ellipse fill="black" stroke="black" cx="3147.8" cy="-226" rx="1.8" ry="1.8"/>
</g>
<!-- dp_189&#45;&#45;dp_190 -->
<g id="edge12" class="edge"><title>dp_189&#45;&#45;dp_190</title>
<path fill="none" stroke="black" d="M3109.85,-169.989C3114.38,-176.849 3141.05,-217.276 3146.01,-224.796"/>
</g>
<!-- dp_162 -->
<g id="node14" class="node"><title>dp_162</title>
<ellipse fill="black" stroke="black" cx="414.6" cy="-258" rx="1.8" ry="1.8"/>
</g>
<!-- dp_161&#45;&#45;dp_162 -->
<g id="edge13" class="edge"><title>dp_161&#45;&#45;dp_162</title>
<path fill="none" stroke="black" d="M347.55,-218.449C354.316,-222.5 404.74,-252.695 412.577,-257.388"/>
</g>
<!-- 64 -->
<g id="node15" class="node"><title>64</title>
<image xlink:href="img/resistor-original.svg" width="62px" height="30px" preserveAspectRatio="xMinYMin meet" x="452.4" y="-141"/>
<text text-anchor="middle" x="422.9" y="-96.8" font-family="Times,serif" font-size="14.00">10000.0 Ω</text>
</g>
<!-- dp_161&#45;&#45;64 -->
<g id="edge14" class="edge"><title>dp_161&#45;&#45;64</title>
<path fill="none" stroke="black" d="M347.666,-217.413C355.763,-211.919 418.746,-169.187 455.665,-144.138"/>
</g>
<!-- 68 -->
<g id="node70" class="node"><title>68</title>
<image xlink:href="img/resistor-original.svg" width="62px" height="30px" preserveAspectRatio="xMinYMin meet" x="3185.6" y="-295"/>
<text text-anchor="middle" x="3159.6" y="-250.8" font-family="Times,serif" font-size="14.00">2200.0 Ω</text>
</g>
<!-- dp_190&#45;&#45;68 -->
<g id="edge84" class="edge"><title>dp_190&#45;&#45;68</title>
<path fill="none" stroke="black" d="M3149.55,-226.606C3153.85,-230.083 3175.79,-247.816 3193.22,-261.906"/>
</g>
<!-- 69 -->
<g id="node71" class="node"><title>69</title>
<image xlink:href="img/resistor-original.svg" width="62px" height="30px" preserveAspectRatio="xMinYMin meet" x="3185.6" y="-241"/>
<text text-anchor="middle" x="3156.1" y="-196.8" font-family="Times,serif" font-size="14.00">10000.0 Ω</text>
</g>
<!-- dp_190&#45;&#45;69 -->
<g id="edge85" class="edge"><title>dp_190&#45;&#45;69</title>
<path fill="none" stroke="black" d="M3149.96,-226C3154.33,-226 3170.29,-226 3185.39,-226"/>
</g>
<!-- 12 -->
<g id="node16" class="node"><title>12</title>
<image xlink:href="img/resistor-original.svg" width="62px" height="30px" preserveAspectRatio="xMinYMin meet" x="786" y="-349"/>
<text text-anchor="middle" x="760" y="-304.8" font-family="Times,serif" font-size="14.00">2200.0 Ω</text>
</g>
<!-- dp_162&#45;&#45;12 -->
<g id="edge15" class="edge"><title>dp_162&#45;&#45;12</title>
<path fill="none" stroke="black" d="M416.575,-258.797C426.21,-266.598 505.632,-329 580.4,-329 580.4,-329 580.4,-329 651.2,-329 698.287,-329 752.907,-331.065 785.936,-332.54"/>
</g>
<!-- dp_163 -->
<g id="node17" class="node"><title>dp_163</title>
<ellipse fill="black" stroke="black" cx="483.4" cy="-258" rx="1.8" ry="1.8"/>
</g>
<!-- dp_162&#45;&#45;dp_163 -->
<g id="edge16" class="edge"><title>dp_162&#45;&#45;dp_163</title>
<path fill="none" stroke="black" d="M416.759,-258C424.937,-258 473.822,-258 481.41,-258"/>
</g>
<!-- dp_188 -->
<g id="node18" class="node"><title>dp_188</title>
<ellipse fill="black" stroke="black" cx="2970.6" cy="-169" rx="1.8" ry="1.8"/>
</g>
<!-- 64&#45;&#45;dp_188 -->
<g id="edge17" class="edge"><title>64&#45;&#45;dp_188</title>
<path fill="none" stroke="black" d="M506.006,-107.876C536.081,-84.5523 593.199,-47 649.2,-47 649.2,-47 649.2,-47 2892.4,-47 2952.05,-47 2967.51,-152.447 2969.39,-167.275"/>
</g>
<!-- dp_187 -->
<g id="node19" class="node"><title>dp_187</title>
<ellipse fill="black" stroke="black" cx="2931" cy="-262" rx="1.8" ry="1.8"/>
</g>
<!-- 12&#45;&#45;dp_187 -->
<g id="edge18" class="edge"><title>12&#45;&#45;dp_187</title>
<path fill="none" stroke="black" d="M848.213,-336.776C886.347,-340.034 953.976,-345 1012,-345 1012,-345 1012,-345 2823.6,-345 2879.36,-345 2923.4,-273.262 2929.32,-263.173"/>
</g>
<!-- 16 -->
<g id="node20" class="node"><title>16</title>
<image xlink:href="img/resistor-original.svg" width="62px" height="30px" preserveAspectRatio="xMinYMin meet" x="550.4" y="-296"/>
<text text-anchor="middle" x="524.4" y="-251.8" font-family="Times,serif" font-size="14.00">2200.0 Ω</text>
</g>
<!-- dp_163&#45;&#45;16 -->
<g id="edge19" class="edge"><title>dp_163&#45;&#45;16</title>
<path fill="none" stroke="black" d="M485.478,-258.258C491.823,-259.778 524.884,-267.699 550.223,-273.77"/>
</g>
<!-- dp_164 -->
<g id="node21" class="node"><title>dp_164</title>
<ellipse fill="black" stroke="black" cx="581.4" cy="-211" rx="1.8" ry="1.8"/>
</g>
<!-- dp_163&#45;&#45;dp_164 -->
<g id="edge20" class="edge"><title>dp_163&#45;&#45;dp_164</title>
<path fill="none" stroke="black" d="M485.478,-257.472C495.366,-252.631 570.142,-216.022 579.45,-211.465"/>
</g>
<!-- 65 -->
<g id="node22" class="node"><title>65</title>
<image xlink:href="img/resistor-original.svg" width="62px" height="30px" preserveAspectRatio="xMinYMin meet" x="3008.4" y="-184"/>
<text text-anchor="middle" x="2978.9" y="-139.8" font-family="Times,serif" font-size="14.00">10000.0 Ω</text>
</g>
<!-- dp_188&#45;&#45;65 -->
<g id="edge21" class="edge"><title>dp_188&#45;&#45;65</title>
<path fill="none" stroke="black" d="M2972.76,-169C2977.13,-169 2993.09,-169 3008.19,-169"/>
</g>
<!-- dp_187&#45;&#45;dp_188 -->
<g id="edge22" class="edge"><title>dp_187&#45;&#45;dp_188</title>
<path fill="none" stroke="black" d="M2932.53,-260.685C2936.78,-250.176 2965.17,-179.962 2969.14,-170.14"/>
</g>
<!-- 17 -->
<g id="node23" class="node"><title>17</title>
<image xlink:href="img/resistor-original.svg" width="62px" height="30px" preserveAspectRatio="xMinYMin meet" x="884" y="-306"/>
<text text-anchor="middle" x="858" y="-261.8" font-family="Times,serif" font-size="14.00">2200.0 Ω</text>
</g>
<!-- 16&#45;&#45;17 -->
<g id="edge23" class="edge"><title>16&#45;&#45;17</title>
<path fill="none" stroke="black" d="M612.412,-281.905C675.386,-283.804 820.694,-288.186 883.817,-290.09"/>
</g>
<!-- dp_165 -->
<g id="node24" class="node"><title>dp_165</title>
<ellipse fill="black" stroke="black" cx="650.2" cy="-211" rx="1.8" ry="1.8"/>
</g>
<!-- dp_164&#45;&#45;dp_165 -->
<g id="edge24" class="edge"><title>dp_164&#45;&#45;dp_165</title>
<path fill="none" stroke="black" d="M583.559,-211C591.737,-211 640.622,-211 648.21,-211"/>
</g>
<!-- 57 -->
<g id="node25" class="node"><title>57</title>
<image xlink:href="img/resistor-original.svg" width="62px" height="30px" preserveAspectRatio="xMinYMin meet" x="688" y="-127"/>
<text text-anchor="middle" x="662" y="-82.8" font-family="Times,serif" font-size="14.00">1000.0 Ω</text>
</g>
<!-- dp_164&#45;&#45;57 -->
<g id="edge25" class="edge"><title>dp_164&#45;&#45;57</title>
<path fill="none" stroke="black" d="M583.266,-210.368C591.499,-204.357 656.467,-156.925 693.094,-130.183"/>
</g>
<!-- 65&#45;&#45;dp_189 -->
<g id="edge83" class="edge"><title>65&#45;&#45;dp_189</title>
<path fill="none" stroke="black" d="M3070.67,-169C3086.14,-169 3102.51,-169 3106.36,-169"/>
</g>
<!-- dp_184 -->
<g id="node26" class="node"><title>dp_184</title>
<ellipse fill="black" stroke="black" cx="2714.2" cy="-278" rx="1.8" ry="1.8"/>
</g>
<!-- 17&#45;&#45;dp_184 -->
<g id="edge26" class="edge"><title>17&#45;&#45;dp_184</title>
<path fill="none" stroke="black" d="M946.179,-295.037C984.279,-299.777 1051.87,-307 1110,-307 1110,-307 1110,-307 2606.8,-307 2651.98,-307 2704.28,-282.354 2712.18,-278.503"/>
</g>
<!-- 23 -->
<g id="node27" class="node"><title>23</title>
<image xlink:href="img/resistor-original.svg" width="62px" height="30px" preserveAspectRatio="xMinYMin meet" x="1080" y="-245"/>
<text text-anchor="middle" x="1116" y="-200.8" font-family="Times,serif" font-size="14.00">2200.0 Ω</text>
</g>
<!-- dp_165&#45;&#45;23 -->
<g id="edge27" class="edge"><title>dp_165&#45;&#45;23</title>
<path fill="none" stroke="black" d="M652.238,-211.258C662.49,-213.785 746.668,-234 816,-234 816,-234 816,-234 916,-234 973.943,-234 1041.6,-232.194 1079.76,-231.009"/>
</g>
<!-- 26 -->
<g id="node28" class="node"><title>26</title>
<image xlink:href="img/resistor-original.svg" width="62px" height="30px" preserveAspectRatio="xMinYMin meet" x="688" y="-203"/>
<text text-anchor="middle" x="662" y="-158.8" font-family="Times,serif" font-size="14.00">2200.0 Ω</text>
</g>
<!-- dp_165&#45;&#45;26 -->
<g id="edge28" class="edge"><title>dp_165&#45;&#45;26</title>
<path fill="none" stroke="black" d="M652.359,-210.601C656.725,-209.098 672.695,-203.599 687.788,-198.402"/>
</g>
<!-- dp_181 -->
<g id="node29" class="node"><title>dp_181</title>
<ellipse fill="black" stroke="black" cx="2497.4" cy="-199" rx="1.8" ry="1.8"/>
</g>
<!-- 57&#45;&#45;dp_181 -->
<g id="edge29" class="edge"><title>57&#45;&#45;dp_181</title>
<path fill="none" stroke="black" d="M750.063,-105.187C788.042,-97.1882 855.511,-85 914,-85 914,-85 914,-85 2390,-85 2454.97,-85 2491.64,-185.195 2495.97,-197.72"/>
</g>
<!-- dp_185 -->
<g id="node30" class="node"><title>dp_185</title>
<ellipse fill="black" stroke="black" cx="2753.8" cy="-278" rx="1.8" ry="1.8"/>
</g>
<!-- dp_184&#45;&#45;dp_185 -->
<g id="edge30" class="edge"><title>dp_184&#45;&#45;dp_185</title>
<path fill="none" stroke="black" d="M2716.13,-278C2721.2,-278 2745.47,-278 2751.46,-278"/>
</g>
<!-- dp_168 -->
<g id="node33" class="node"><title>dp_168</title>
<ellipse fill="black" stroke="black" cx="1179.8" cy="-197" rx="1.8" ry="1.8"/>
</g>
<!-- 23&#45;&#45;dp_168 -->
<g id="edge33" class="edge"><title>23&#45;&#45;dp_168</title>
<path fill="none" stroke="black" d="M1142.27,-215.045C1157.74,-207.405 1174.11,-199.319 1177.96,-197.417"/>
</g>
<!-- 27 -->
<g id="node34" class="node"><title>27</title>
<image xlink:href="img/resistor-original.svg" width="62px" height="30px" preserveAspectRatio="xMinYMin meet" x="786" y="-203"/>
<text text-anchor="middle" x="760" y="-158.8" font-family="Times,serif" font-size="14.00">2200.0 Ω</text>
</g>
<!-- 26&#45;&#45;27 -->
<g id="edge34" class="edge"><title>26&#45;&#45;27</title>
<path fill="none" stroke="black" d="M750.112,-188C761.549,-188 774.568,-188 785.995,-188"/>
</g>
<!-- dp_182 -->
<g id="node35" class="node"><title>dp_182</title>
<ellipse fill="black" stroke="black" cx="2537" cy="-204" rx="1.8" ry="1.8"/>
</g>
<!-- dp_181&#45;&#45;dp_182 -->
<g id="edge35" class="edge"><title>dp_181&#45;&#45;dp_182</title>
<path fill="none" stroke="black" d="M2499.33,-199.124C2504.4,-199.797 2528.67,-203.026 2534.66,-203.822"/>
</g>
<!-- 62 -->
<g id="node31" class="node"><title>62</title>
<image xlink:href="img/resistor-original.svg" width="62px" height="30px" preserveAspectRatio="xMinYMin meet" x="2791.6" y="-304"/>
<text text-anchor="middle" x="2762.1" y="-259.8" font-family="Times,serif" font-size="14.00">10000.0 Ω</text>
</g>
<!-- dp_185&#45;&#45;62 -->
<g id="edge31" class="edge"><title>dp_185&#45;&#45;62</title>
<path fill="none" stroke="black" d="M2755.96,-278.191C2760.33,-278.91 2776.29,-281.54 2791.39,-284.025"/>
</g>
<!-- 63 -->
<g id="node32" class="node"><title>63</title>
<image xlink:href="img/resistor-original.svg" width="62px" height="30px" preserveAspectRatio="xMinYMin meet" x="2791.6" y="-250"/>
<text text-anchor="middle" x="2762.1" y="-205.8" font-family="Times,serif" font-size="14.00">10000.0 Ω</text>
</g>
<!-- dp_185&#45;&#45;63 -->
<g id="edge32" class="edge"><title>dp_185&#45;&#45;63</title>
<path fill="none" stroke="black" d="M2755.55,-277.517C2759.39,-275.044 2777.31,-263.511 2793.51,-253.08"/>
</g>
<!-- dp_186 -->
<g id="node69" class="node"><title>dp_186</title>
<ellipse fill="black" stroke="black" cx="2891.4" cy="-262" rx="1.8" ry="1.8"/>
</g>
<!-- 62&#45;&#45;dp_186 -->
<g id="edge80" class="edge"><title>62&#45;&#45;dp_186</title>
<path fill="none" stroke="black" d="M2853.87,-276.764C2869.34,-270.513 2885.71,-263.898 2889.56,-262.341"/>
</g>
<!-- 63&#45;&#45;dp_186 -->
<g id="edge81" class="edge"><title>63&#45;&#45;dp_186</title>
<path fill="none" stroke="black" d="M2853.87,-247.236C2869.34,-253.487 2885.71,-260.102 2889.56,-261.659"/>
</g>
<!-- dp_169 -->
<g id="node36" class="node"><title>dp_169</title>
<ellipse fill="black" stroke="black" cx="1219.4" cy="-197" rx="1.8" ry="1.8"/>
</g>
<!-- dp_168&#45;&#45;dp_169 -->
<g id="edge36" class="edge"><title>dp_168&#45;&#45;dp_169</title>
<path fill="none" stroke="black" d="M1181.73,-197C1186.8,-197 1211.07,-197 1217.06,-197"/>
</g>
<!-- dp_166 -->
<g id="node37" class="node"><title>dp_166</title>
<ellipse fill="black" stroke="black" cx="915" cy="-188" rx="1.8" ry="1.8"/>
</g>
<!-- 27&#45;&#45;dp_166 -->
<g id="edge37" class="edge"><title>27&#45;&#45;dp_166</title>
<path fill="none" stroke="black" d="M848.112,-188C873.626,-188 907.009,-188 913.044,-188"/>
</g>
<!-- 59 -->
<g id="node66" class="node"><title>59</title>
<image xlink:href="img/resistor-original.svg" width="62px" height="30px" preserveAspectRatio="xMinYMin meet" x="2574.8" y="-273"/>
<text text-anchor="middle" x="2548.8" y="-228.8" font-family="Times,serif" font-size="14.00">2200.0 Ω</text>
</g>
<!-- dp_182&#45;&#45;59 -->
<g id="edge75" class="edge"><title>dp_182&#45;&#45;59</title>
<path fill="none" stroke="black" d="M2538.75,-204.606C2543.05,-208.083 2564.99,-225.816 2582.42,-239.906"/>
</g>
<!-- 60 -->
<g id="node67" class="node"><title>60</title>
<image xlink:href="img/resistor-original.svg" width="62px" height="30px" preserveAspectRatio="xMinYMin meet" x="2574.8" y="-219"/>
<text text-anchor="middle" x="2545.3" y="-174.8" font-family="Times,serif" font-size="14.00">10000.0 Ω</text>
</g>
<!-- dp_182&#45;&#45;60 -->
<g id="edge76" class="edge"><title>dp_182&#45;&#45;60</title>
<path fill="none" stroke="black" d="M2539.16,-204C2543.53,-204 2559.49,-204 2574.59,-204"/>
</g>
<!-- dp_170 -->
<g id="node38" class="node"><title>dp_170</title>
<ellipse fill="black" stroke="black" cx="1259" cy="-214" rx="1.8" ry="1.8"/>
</g>
<!-- dp_169&#45;&#45;dp_170 -->
<g id="edge38" class="edge"><title>dp_169&#45;&#45;dp_170</title>
<path fill="none" stroke="black" d="M1221.33,-197.42C1226.58,-199.793 1252.43,-211.482 1257.23,-213.653"/>
</g>
<!-- 49 -->
<g id="node39" class="node"><title>49</title>
<image xlink:href="img/resistor-original.svg" width="62px" height="30px" preserveAspectRatio="xMinYMin meet" x="1296.8" y="-164"/>
<text text-anchor="middle" x="1267.3" y="-119.8" font-family="Times,serif" font-size="14.00">10000.0 Ω</text>
</g>
<!-- dp_169&#45;&#45;49 -->
<g id="edge39" class="edge"><title>dp_169&#45;&#45;49</title>
<path fill="none" stroke="black" d="M1221.59,-196.461C1228.9,-193.165 1268.17,-175.45 1296.59,-162.626"/>
</g>
<!-- 29 -->
<g id="node40" class="node"><title>29</title>
<image xlink:href="img/resistor-original.svg" width="62px" height="30px" preserveAspectRatio="xMinYMin meet" x="982" y="-203"/>
<text text-anchor="middle" x="956" y="-158.8" font-family="Times,serif" font-size="14.00">2200.0 Ω</text>
</g>
<!-- dp_166&#45;&#45;29 -->
<g id="edge40" class="edge"><title>dp_166&#45;&#45;29</title>
<path fill="none" stroke="black" d="M917.078,-188C923.423,-188 956.484,-188 981.823,-188"/>
</g>
<!-- 30 -->
<g id="node41" class="node"><title>30</title>
<image xlink:href="img/resistor-original.svg" width="62px" height="30px" preserveAspectRatio="xMinYMin meet" x="982" y="-149"/>
<text text-anchor="middle" x="952.5" y="-104.8" font-family="Times,serif" font-size="14.00">10000.0 Ω</text>
</g>
<!-- dp_166&#45;&#45;30 -->
<g id="edge41" class="edge"><title>dp_166&#45;&#45;30</title>
<path fill="none" stroke="black" d="M917.078,-187.394C923.423,-183.825 956.484,-165.228 981.823,-150.975"/>
</g>
<!-- 33 -->
<g id="node43" class="node"><title>33</title>
<image xlink:href="img/resistor-original.svg" width="62px" height="30px" preserveAspectRatio="xMinYMin meet" x="1590.8" y="-276"/>
<text text-anchor="middle" x="1626.8" y="-231.8" font-family="Times,serif" font-size="14.00">2200.0 Ω</text>
</g>
<!-- dp_170&#45;&#45;33 -->
<g id="edge45" class="edge"><title>dp_170&#45;&#45;33</title>
<path fill="none" stroke="black" d="M1260.91,-214.286C1265.03,-215.582 1282.4,-221.014 1296.8,-225 1340.12,-236.995 1350.35,-243.318 1394.8,-250 1464.33,-260.453 1547.12,-261.666 1590.63,-261.45"/>
</g>
<!-- dp_171 -->
<g id="node44" class="node"><title>dp_171</title>
<ellipse fill="black" stroke="black" cx="1327.8" cy="-214" rx="1.8" ry="1.8"/>
</g>
<!-- dp_170&#45;&#45;dp_171 -->
<g id="edge46" class="edge"><title>dp_170&#45;&#45;dp_171</title>
<path fill="none" stroke="black" d="M1261.16,-214C1269.34,-214 1318.22,-214 1325.81,-214"/>
</g>
<!-- dp_176 -->
<g id="node45" class="node"><title>dp_176</title>
<ellipse fill="black" stroke="black" cx="2103.4" cy="-182" rx="1.8" ry="1.8"/>
</g>
<!-- 49&#45;&#45;dp_176 -->
<g id="edge47" class="edge"><title>49&#45;&#45;dp_176</title>
<path fill="none" stroke="black" d="M1358.88,-142.439C1396.87,-134.737 1464.35,-123 1522.8,-123 1522.8,-123 1522.8,-123 2025.2,-123 2065.01,-123 2097.03,-173.141 2101.79,-180.976"/>
</g>
<!-- dp_167 -->
<g id="node42" class="node"><title>dp_167</title>
<ellipse fill="black" stroke="black" cx="1111" cy="-188" rx="1.8" ry="1.8"/>
</g>
<!-- 29&#45;&#45;dp_167 -->
<g id="edge42" class="edge"><title>29&#45;&#45;dp_167</title>
<path fill="none" stroke="black" d="M1044.11,-188C1069.63,-188 1103.01,-188 1109.04,-188"/>
</g>
<!-- 30&#45;&#45;dp_167 -->
<g id="edge43" class="edge"><title>30&#45;&#45;dp_167</title>
<path fill="none" stroke="black" d="M1044.11,-150.938C1069.63,-165.29 1103.01,-184.068 1109.04,-187.462"/>
</g>
<!-- dp_167&#45;&#45;dp_168 -->
<g id="edge44" class="edge"><title>dp_167&#45;&#45;dp_168</title>
<path fill="none" stroke="black" d="M1113.16,-188.156C1121.34,-189.258 1170.22,-195.844 1177.81,-196.867"/>
</g>
<!-- dp_175 -->
<g id="node46" class="node"><title>dp_175</title>
<ellipse fill="black" stroke="black" cx="2063.8" cy="-212" rx="1.8" ry="1.8"/>
</g>
<!-- 33&#45;&#45;dp_175 -->
<g id="edge48" class="edge"><title>33&#45;&#45;dp_175</title>
<path fill="none" stroke="black" d="M1652.93,-263.798C1680.39,-266.105 1722.08,-269 1758.4,-269 1758.4,-269 1758.4,-269 1956.4,-269 2005.86,-269 2054.55,-220.558 2061.86,-212.989"/>
</g>
<!-- 37 -->
<g id="node47" class="node"><title>37</title>
<image xlink:href="img/resistor-original.svg" width="62px" height="30px" preserveAspectRatio="xMinYMin meet" x="1394.8" y="-238"/>
<text text-anchor="middle" x="1368.8" y="-193.8" font-family="Times,serif" font-size="14.00">2200.0 Ω</text>
</g>
<!-- dp_171&#45;&#45;37 -->
<g id="edge49" class="edge"><title>dp_171&#45;&#45;37</title>
<path fill="none" stroke="black" d="M1329.88,-214.101C1336.22,-214.696 1369.28,-217.795 1394.62,-220.171"/>
</g>
<!-- 40 -->
<g id="node48" class="node"><title>40</title>
<image xlink:href="img/resistor-original.svg" width="62px" height="30px" preserveAspectRatio="xMinYMin meet" x="1394.8" y="-184"/>
<text text-anchor="middle" x="1427.3" y="-139.8" font-family="Times,serif" font-size="14.00">10000.0 Ω</text>
</g>
<!-- dp_171&#45;&#45;40 -->
<g id="edge50" class="edge"><title>dp_171&#45;&#45;40</title>
<path fill="none" stroke="black" d="M1329.88,-213.495C1336.22,-210.521 1369.28,-195.023 1394.62,-183.146"/>
</g>
<!-- dp_177 -->
<g id="node49" class="node"><title>dp_177</title>
<ellipse fill="black" stroke="black" cx="2143" cy="-182" rx="1.8" ry="1.8"/>
</g>
<!-- dp_176&#45;&#45;dp_177 -->
<g id="edge51" class="edge"><title>dp_176&#45;&#45;dp_177</title>
<path fill="none" stroke="black" d="M2105.33,-182C2110.4,-182 2134.67,-182 2140.66,-182"/>
</g>
<!-- dp_175&#45;&#45;dp_176 -->
<g id="edge52" class="edge"><title>dp_175&#45;&#45;dp_176</title>
<path fill="none" stroke="black" d="M2065.73,-211.258C2070.98,-207.072 2096.83,-186.444 2101.63,-182.613"/>
</g>
<!-- 38 -->
<g id="node50" class="node"><title>38</title>
<image xlink:href="img/resistor-original.svg" width="62px" height="30px" preserveAspectRatio="xMinYMin meet" x="1492.8" y="-238"/>
<text text-anchor="middle" x="1463.3" y="-193.8" font-family="Times,serif" font-size="14.00">10000.0 Ω</text>
</g>
<!-- 37&#45;&#45;38 -->
<g id="edge53" class="edge"><title>37&#45;&#45;38</title>
<path fill="none" stroke="black" d="M1456.91,-223C1468.35,-223 1481.37,-223 1492.8,-223"/>
</g>
<!-- 41 -->
<g id="node51" class="node"><title>41</title>
<image xlink:href="img/resistor-original.svg" width="62px" height="30px" preserveAspectRatio="xMinYMin meet" x="1492.8" y="-184"/>
<text text-anchor="middle" x="1528.8" y="-139.8" font-family="Times,serif" font-size="14.00">1000.0 Ω</text>
</g>
<!-- 40&#45;&#45;41 -->
<g id="edge54" class="edge"><title>40&#45;&#45;41</title>
<path fill="none" stroke="black" d="M1456.91,-169C1468.35,-169 1481.37,-169 1492.8,-169"/>
</g>
<!-- 52 -->
<g id="node59" class="node"><title>52</title>
<image xlink:href="img/resistor-original.svg" width="62px" height="30px" preserveAspectRatio="xMinYMin meet" x="2180.8" y="-224"/>
<text text-anchor="middle" x="2213.3" y="-179.8" font-family="Times,serif" font-size="14.00">10000.0 Ω</text>
</g>
<!-- dp_177&#45;&#45;52 -->
<g id="edge65" class="edge"><title>dp_177&#45;&#45;52</title>
<path fill="none" stroke="black" d="M2145.16,-182.469C2149.53,-184.233 2165.49,-190.688 2180.59,-196.789"/>
</g>
<!-- 53 -->
<g id="node60" class="node"><title>53</title>
<image xlink:href="img/resistor-original.svg" width="62px" height="30px" preserveAspectRatio="xMinYMin meet" x="2180.8" y="-170"/>
<text text-anchor="middle" x="2154.8" y="-125.8" font-family="Times,serif" font-size="14.00">1000.0 Ω</text>
</g>
<!-- dp_177&#45;&#45;53 -->
<g id="edge66" class="edge"><title>dp_177&#45;&#45;53</title>
<path fill="none" stroke="black" d="M2145.16,-181.531C2149.53,-179.767 2165.49,-173.312 2180.59,-167.211"/>
</g>
<!-- dp_172 -->
<g id="node52" class="node"><title>dp_172</title>
<ellipse fill="black" stroke="black" cx="1621.8" cy="-192" rx="1.8" ry="1.8"/>
</g>
<!-- 38&#45;&#45;dp_172 -->
<g id="edge55" class="edge"><title>38&#45;&#45;dp_172</title>
<path fill="none" stroke="black" d="M1554.91,-213.276C1580.43,-205.037 1613.81,-194.258 1619.84,-192.309"/>
</g>
<!-- 41&#45;&#45;dp_172 -->
<g id="edge56" class="edge"><title>41&#45;&#45;dp_172</title>
<path fill="none" stroke="black" d="M1554.91,-176.214C1580.43,-182.327 1613.81,-190.325 1619.84,-191.771"/>
</g>
<!-- dp_173 -->
<g id="node53" class="node"><title>dp_173</title>
<ellipse fill="black" stroke="black" cx="1690.6" cy="-192" rx="1.8" ry="1.8"/>
</g>
<!-- dp_172&#45;&#45;dp_173 -->
<g id="edge57" class="edge"><title>dp_172&#45;&#45;dp_173</title>
<path fill="none" stroke="black" d="M1623.96,-192C1632.14,-192 1681.02,-192 1688.61,-192"/>
</g>
<!-- 45 -->
<g id="node54" class="node"><title>45</title>
<image xlink:href="img/resistor-original.svg" width="62px" height="30px" preserveAspectRatio="xMinYMin meet" x="1728.4" y="-234"/>
<text text-anchor="middle" x="1764.4" y="-189.8" font-family="Times,serif" font-size="14.00">1000.0 Ω</text>
</g>
<!-- dp_173&#45;&#45;45 -->
<g id="edge58" class="edge"><title>dp_173&#45;&#45;45</title>
<path fill="none" stroke="black" d="M1692.76,-192.469C1697.13,-194.233 1713.09,-200.688 1728.19,-206.789"/>
</g>
<!-- 48 -->
<g id="node55" class="node"><title>48</title>
<image xlink:href="img/resistor-original.svg" width="62px" height="30px" preserveAspectRatio="xMinYMin meet" x="1826.4" y="-184"/>
<text text-anchor="middle" x="1800.4" y="-139.8" font-family="Times,serif" font-size="14.00">1000.0 Ω</text>
</g>
<!-- dp_173&#45;&#45;48 -->
<g id="edge59" class="edge"><title>dp_173&#45;&#45;48</title>
<path fill="none" stroke="black" d="M1692.65,-191.853C1702.66,-190.457 1781.62,-179.437 1826.13,-173.224"/>
</g>
<!-- 46 -->
<g id="node56" class="node"><title>46</title>
<image xlink:href="img/resistor-original.svg" width="62px" height="30px" preserveAspectRatio="xMinYMin meet" x="1826.4" y="-238"/>
<text text-anchor="middle" x="1862.4" y="-193.8" font-family="Times,serif" font-size="14.00">2200.0 Ω</text>
</g>
<!-- 45&#45;&#45;46 -->
<g id="edge60" class="edge"><title>45&#45;&#45;46</title>
<path fill="none" stroke="black" d="M1790.51,-220.255C1801.95,-220.731 1814.97,-221.274 1826.4,-221.75"/>
</g>
<!-- dp_174 -->
<g id="node57" class="node"><title>dp_174</title>
<ellipse fill="black" stroke="black" cx="2024.2" cy="-212" rx="1.8" ry="1.8"/>
</g>
<!-- 48&#45;&#45;dp_174 -->
<g id="edge61" class="edge"><title>48&#45;&#45;dp_174</title>
<path fill="none" stroke="black" d="M1888.46,-172.602C1914.77,-176.287 1953.77,-183.047 1986.4,-194 2001.5,-199.07 2018.35,-209.049 2022.33,-211.464"/>
</g>
<!-- 47 -->
<g id="node58" class="node"><title>47</title>
<image xlink:href="img/resistor-original.svg" width="62px" height="30px" preserveAspectRatio="xMinYMin meet" x="1924.4" y="-236"/>
<text text-anchor="middle" x="1956.9" y="-191.8" font-family="Times,serif" font-size="14.00">10000.0 Ω</text>
</g>
<!-- 46&#45;&#45;47 -->
<g id="edge62" class="edge"><title>46&#45;&#45;47</title>
<path fill="none" stroke="black" d="M1888.51,-222.373C1899.95,-222.134 1912.97,-221.863 1924.4,-221.625"/>
</g>
<!-- dp_174&#45;&#45;dp_175 -->
<g id="edge63" class="edge"><title>dp_174&#45;&#45;dp_175</title>
<path fill="none" stroke="black" d="M2026.13,-212C2031.2,-212 2055.47,-212 2061.46,-212"/>
</g>
<!-- 47&#45;&#45;dp_174 -->
<g id="edge64" class="edge"><title>47&#45;&#45;dp_174</title>
<path fill="none" stroke="black" d="M1986.67,-216.921C2002.14,-214.838 2018.51,-212.633 2022.36,-212.114"/>
</g>
<!-- dp_178 -->
<g id="node61" class="node"><title>dp_178</title>
<ellipse fill="black" stroke="black" cx="2280.6" cy="-205" rx="1.8" ry="1.8"/>
</g>
<!-- 52&#45;&#45;dp_178 -->
<g id="edge67" class="edge"><title>52&#45;&#45;dp_178</title>
<path fill="none" stroke="black" d="M2243.07,-207.187C2258.54,-206.261 2274.91,-205.281 2278.76,-205.051"/>
</g>
<!-- 53&#45;&#45;dp_178 -->
<g id="edge68" class="edge"><title>53&#45;&#45;dp_178</title>
<path fill="none" stroke="black" d="M2236.92,-173.051C2253.66,-185.583 2273.78,-200.645 2278.55,-204.215"/>
</g>
<!-- dp_179 -->
<g id="node62" class="node"><title>dp_179</title>
<ellipse fill="black" stroke="black" cx="2320.2" cy="-205" rx="1.8" ry="1.8"/>
</g>
<!-- dp_178&#45;&#45;dp_179 -->
<g id="edge69" class="edge"><title>dp_178&#45;&#45;dp_179</title>
<path fill="none" stroke="black" d="M2282.53,-205C2287.6,-205 2311.87,-205 2317.86,-205"/>
</g>
<!-- 55 -->
<g id="node63" class="node"><title>55</title>
<image xlink:href="img/resistor-original.svg" width="62px" height="30px" preserveAspectRatio="xMinYMin meet" x="2358" y="-231"/>
<text text-anchor="middle" x="2328.5" y="-186.8" font-family="Times,serif" font-size="14.00">10000.0 Ω</text>
</g>
<!-- dp_179&#45;&#45;55 -->
<g id="edge70" class="edge"><title>dp_179&#45;&#45;55</title>
<path fill="none" stroke="black" d="M2322.36,-205.191C2326.73,-205.91 2342.69,-208.54 2357.79,-211.025"/>
</g>
<!-- 56 -->
<g id="node64" class="node"><title>56</title>
<image xlink:href="img/resistor-original.svg" width="62px" height="30px" preserveAspectRatio="xMinYMin meet" x="2358" y="-177"/>
<text text-anchor="middle" x="2332" y="-132.8" font-family="Times,serif" font-size="14.00">1000.0 Ω</text>
</g>
<!-- dp_179&#45;&#45;56 -->
<g id="edge71" class="edge"><title>dp_179&#45;&#45;56</title>
<path fill="none" stroke="black" d="M2321.95,-204.517C2325.79,-202.044 2343.71,-190.511 2359.91,-180.08"/>
</g>
<!-- dp_180 -->
<g id="node65" class="node"><title>dp_180</title>
<ellipse fill="black" stroke="black" cx="2457.8" cy="-199" rx="1.8" ry="1.8"/>
</g>
<!-- 55&#45;&#45;dp_180 -->
<g id="edge72" class="edge"><title>55&#45;&#45;dp_180</title>
<path fill="none" stroke="black" d="M2420.27,-208.296C2435.74,-204.36 2452.11,-200.195 2455.96,-199.215"/>
</g>
<!-- 56&#45;&#45;dp_180 -->
<g id="edge73" class="edge"><title>56&#45;&#45;dp_180</title>
<path fill="none" stroke="black" d="M2420.27,-178.768C2435.74,-187.334 2452.11,-196.4 2455.96,-198.532"/>
</g>
<!-- dp_180&#45;&#45;dp_181 -->
<g id="edge74" class="edge"><title>dp_180&#45;&#45;dp_181</title>
<path fill="none" stroke="black" d="M2459.73,-199C2464.8,-199 2489.07,-199 2495.06,-199"/>
</g>
<!-- dp_183 -->
<g id="node68" class="node"><title>dp_183</title>
<ellipse fill="black" stroke="black" cx="2674.6" cy="-258" rx="1.8" ry="1.8"/>
</g>
<!-- 59&#45;&#45;dp_183 -->
<g id="edge77" class="edge"><title>59&#45;&#45;dp_183</title>
<path fill="none" stroke="black" d="M2637.07,-258C2652.54,-258 2668.91,-258 2672.76,-258"/>
</g>
<!-- 60&#45;&#45;dp_183 -->
<g id="edge78" class="edge"><title>60&#45;&#45;dp_183</title>
<path fill="none" stroke="black" d="M2629.42,-222.282C2646.37,-235.99 2667.48,-253.055 2672.5,-257.108"/>
</g>
<!-- dp_183&#45;&#45;dp_184 -->
<g id="edge79" class="edge"><title>dp_183&#45;&#45;dp_184</title>
<path fill="none" stroke="black" d="M2676.53,-258.494C2681.78,-261.285 2707.63,-275.037 2712.43,-277.591"/>
</g>
<!-- dp_186&#45;&#45;dp_187 -->
<g id="edge82" class="edge"><title>dp_186&#45;&#45;dp_187</title>
<path fill="none" stroke="black" d="M2893.33,-262C2898.4,-262 2922.67,-262 2928.66,-262"/>
</g>
<!-- dp_191 -->
<g id="node72" class="node"><title>dp_191</title>
<ellipse fill="black" stroke="black" cx="3285.4" cy="-280" rx="1.8" ry="1.8"/>
</g>
<!-- 68&#45;&#45;dp_191 -->
<g id="edge86" class="edge"><title>68&#45;&#45;dp_191</title>
<path fill="none" stroke="black" d="M3247.87,-280C3263.34,-280 3279.71,-280 3283.56,-280"/>
</g>
<!-- 69&#45;&#45;dp_191 -->
<g id="edge87" class="edge"><title>69&#45;&#45;dp_191</title>
<path fill="none" stroke="black" d="M3240.22,-244.282C3257.17,-257.99 3278.28,-275.055 3283.3,-279.108"/>
</g>
<!-- dp_191&#45;&#45;dp_192 -->
<g id="edge88" class="edge"><title>dp_191&#45;&#45;dp_192</title>
<path fill="none" stroke="black" d="M3287.05,-280.885C3291.58,-287.023 3318.25,-323.195 3323.21,-329.923"/>
</g>
</g>
</svg>
